<svg width="32" height="32" viewBox="0 0 32 32" fill="none" xmlns="http://www.w3.org/2000/svg">
<path d="M4 16H16V18H4V16ZM2 11H12V13H2V11Z" fill="white"/>
<path d="M29.919 16.606L26.919 9.606C26.842 9.42608 26.7139 9.27273 26.5505 9.165C26.3872 9.05727 26.1957 8.99989 26 9H23V7C23 6.73478 22.8947 6.48043 22.7071 6.29289C22.5196 6.10536 22.2652 6 22 6H6.00003V8H21V20.556C20.5444 20.8206 20.1456 21.1728 19.8267 21.5922C19.5078 22.0117 19.2751 22.4902 19.142 23H12.858C12.6146 22.0573 12.0358 21.2358 11.23 20.6894C10.4242 20.143 9.44684 19.9092 8.48103 20.0319C7.51522 20.1546 6.6273 20.6253 5.98371 21.3558C5.34012 22.0863 4.98505 23.0264 4.98505 24C4.98505 24.9736 5.34012 25.9137 5.98371 26.6442C6.6273 27.3747 7.51522 27.8454 8.48103 27.9681C9.44684 28.0908 10.4242 27.857 11.23 27.3106C12.0358 26.7642 12.6146 25.9427 12.858 25H19.142C19.3596 25.8582 19.8571 26.6194 20.5558 27.1632C21.2546 27.7069 22.1147 28.0021 23 28.0021C23.8854 28.0021 24.7455 27.7069 25.4443 27.1632C26.143 26.6194 26.6405 25.8582 26.858 25H29C29.2652 25 29.5196 24.8946 29.7071 24.7071C29.8947 24.5196 30 24.2652 30 24V17C30.0001 16.8645 29.9725 16.7305 29.919 16.606ZM9.00003 26C8.60447 26 8.21779 25.8827 7.88889 25.6629C7.55999 25.4432 7.30365 25.1308 7.15227 24.7654C7.0009 24.3999 6.96129 23.9978 7.03846 23.6098C7.11563 23.2219 7.30611 22.8655 7.58582 22.5858C7.86552 22.3061 8.22189 22.1156 8.60985 22.0384C8.99781 21.9613 9.39994 22.0009 9.7654 22.1522C10.1308 22.3036 10.4432 22.56 10.663 22.8889C10.8827 23.2178 11 23.6044 11 24C10.9995 24.5303 10.7886 25.0387 10.4137 25.4136C10.0387 25.7886 9.5303 25.9995 9.00003 26ZM23 11H25.34L27.484 16H23V11ZM23 26C22.6045 26 22.2178 25.8827 21.8889 25.6629C21.56 25.4432 21.3036 25.1308 21.1523 24.7654C21.0009 24.3999 20.9613 23.9978 21.0385 23.6098C21.1156 23.2219 21.3061 22.8655 21.5858 22.5858C21.8655 22.3061 22.2219 22.1156 22.6098 22.0384C22.9978 21.9613 23.3999 22.0009 23.7654 22.1522C24.1308 22.3036 24.4432 22.56 24.663 22.8889C24.8827 23.2178 25 23.6044 25 24C24.9995 24.5303 24.7886 25.0387 24.4137 25.4136C24.0387 25.7886 23.5303 25.9995 23 26ZM28 23H26.858C26.6378 22.1434 26.1395 21.3842 25.4413 20.8413C24.7431 20.2983 23.8845 20.0025 23 20V18H28V23Z" fill="white"/>
</svg>
