<svg width="24" height="24" viewBox="0 0 24 24" fill="none" xmlns="http://www.w3.org/2000/svg">
<path d="M18 7.912H17.87C15.98 7.852 14.57 6.392 14.57 4.592C14.57 2.752 16.07 1.262 17.9 1.262C19.73 1.262 21.23 2.762 21.23 4.592C21.2312 5.45666 20.8958 6.28784 20.2947 6.90943C19.6937 7.53102 18.8742 7.89419 18.01 7.922C18.01 7.912 18.01 7.912 18 7.912V7.912ZM17.9 2.752C16.89 2.752 16.07 3.572 16.07 4.582C16.07 5.572 16.84 6.372 17.83 6.412C17.84 6.402 17.92 6.402 18.01 6.412C18.4835 6.38078 18.9264 6.16705 19.2455 5.81582C19.5646 5.46458 19.7349 5.00324 19.7206 4.52893C19.7064 4.05462 19.5086 3.60435 19.1691 3.27291C18.8295 2.94147 18.3745 2.75473 17.9 2.752V2.752ZM18.009 15.28C17.619 15.28 17.229 15.25 16.839 15.18C16.7417 15.1631 16.6488 15.1272 16.5654 15.0742C16.4821 15.0213 16.41 14.9525 16.3534 14.8717C16.2967 14.7908 16.2565 14.6996 16.2352 14.6032C16.2139 14.5068 16.2117 14.4072 16.229 14.31C16.2459 14.2127 16.2818 14.1198 16.3348 14.0364C16.3877 13.9531 16.4565 13.881 16.5373 13.8244C16.6182 13.7677 16.7094 13.7275 16.8058 13.7062C16.9022 13.6849 17.0018 13.6827 17.099 13.7C18.329 13.91 19.629 13.68 20.499 13.1C20.969 12.79 21.219 12.4 21.219 12.01C21.219 11.62 20.959 11.24 20.499 10.93C19.629 10.35 18.309 10.12 17.069 10.34C16.659 10.42 16.269 10.14 16.199 9.73C16.129 9.32 16.399 8.93 16.809 8.86C18.439 8.57 20.129 8.88 21.329 9.68C22.209 10.27 22.719 11.11 22.719 12.01C22.719 12.9 22.219 13.75 21.329 14.35C20.419 14.95 19.239 15.28 18.009 15.28V15.28ZM5.97 7.91H5.95C5.08726 7.88299 4.26886 7.52145 3.66792 6.90184C3.06697 6.28223 2.73062 5.45316 2.73 4.59C2.73 2.75 4.23 1.25 6.06 1.25C7.89 1.25 9.39 2.75 9.39 4.58C9.39 6.39 7.98 7.85 6.18 7.91L5.97 7.16L6.04 7.91H5.97V7.91ZM6.07 6.41C6.13 6.41 6.18 6.41 6.24 6.42C7.13 6.38 7.91 5.58 7.91 4.59C7.90947 4.23244 7.80419 3.88286 7.60719 3.58447C7.41018 3.28607 7.13007 3.05192 6.80147 2.91095C6.47287 2.76999 6.11017 2.72837 5.75818 2.79126C5.40618 2.85414 5.08033 3.01876 4.82086 3.26478C4.56139 3.51081 4.37968 3.82746 4.29818 4.17561C4.21667 4.52376 4.23895 4.88816 4.36225 5.22379C4.48555 5.55942 4.70448 5.85158 4.99198 6.06417C5.27949 6.27676 5.62297 6.40046 5.98 6.42C5.99 6.41 6.03 6.41 6.07 6.41ZM5.96 15.28C4.73 15.28 3.55 14.95 2.64 14.35C1.76 13.76 1.25 12.91 1.25 12.01C1.25 11.12 1.76 10.27 2.64 9.68C3.84 8.88 5.53 8.57 7.16 8.86C7.57 8.93 7.84 9.32 7.77 9.73C7.7 10.14 7.31 10.42 6.9 10.34C5.66 10.12 4.35 10.35 3.47 10.93C3 11.24 2.75 11.62 2.75 12.01C2.75 12.4 3.01 12.79 3.47 13.1C4.34 13.68 5.64 13.91 6.87 13.7C7.28 13.63 7.67 13.91 7.74 14.31C7.81 14.72 7.54 15.11 7.13 15.18C6.74 15.25 6.35 15.28 5.96 15.28V15.28ZM12 15.38H11.87C9.98 15.32 8.57 13.86 8.57 12.06C8.57 10.22 10.07 8.73 11.9 8.73C13.73 8.73 15.23 10.23 15.23 12.06C15.2312 12.9247 14.8958 13.7558 14.2947 14.3774C13.6937 14.999 12.8742 15.3622 12.01 15.39C12.01 15.38 12.01 15.38 12 15.38ZM11.9 10.22C10.89 10.22 10.07 11.04 10.07 12.05C10.07 13.04 10.84 13.84 11.83 13.88C11.84 13.87 11.92 13.87 12.01 13.88C12.98 13.83 13.73 13.03 13.74 12.05C13.74 11.05 12.92 10.22 11.9 10.22ZM12.001 22.759C10.801 22.759 9.601 22.449 8.671 21.819C7.791 21.229 7.281 20.389 7.281 19.489C7.281 18.599 7.781 17.739 8.671 17.149C10.541 15.909 13.471 15.909 15.331 17.149C16.211 17.739 16.721 18.579 16.721 19.479C16.721 20.369 16.221 21.229 15.331 21.819C14.401 22.439 13.201 22.759 12.001 22.759ZM9.501 18.409C9.031 18.719 8.781 19.109 8.781 19.499C8.781 19.889 9.041 20.269 9.501 20.579C10.851 21.489 13.141 21.489 14.491 20.579C14.961 20.269 15.211 19.879 15.211 19.489C15.211 19.099 14.951 18.719 14.491 18.409C13.151 17.499 10.861 17.509 9.501 18.409Z" fill="white"/>
</svg>
